<svg width="320" height="235" viewBox="0 0 522 235" fill="none" xmlns="http://www.w3.org/2000/svg">
<g opacity="0.77" filter="url(#filter0_f_6_3)">
<path d="M432 128.5C432 107.237 412.529 90 388.51 90H133.49C109.471 90 90 107.237 90 128.5C90 149.763 109.471 167 133.49 167H388.51C412.529 167 432 149.763 432 128.5Z" fill="#179444"/>
</g>
<path d="M443 128.5C443 103.371 422.277 83 396.713 83H125.287C99.7235 83 79 103.371 79 128.5C79 153.629 99.7235 174 125.287 174H396.713C422.277 174 443 153.629 443 128.5Z" fill="#1DB954"/>
<path d="M213.045 113.141H219.73V132.746C219.73 135.07 219.238 137.025 218.254 138.611C217.283 140.197 215.93 141.394 214.193 142.2C212.457 143.007 210.447 143.41 208.164 143.41C205.867 143.41 203.844 143.007 202.094 142.2C200.357 141.394 198.99 140.197 197.992 138.611C197.008 137.025 196.516 135.07 196.516 132.746V113.141H203.222V132.746C203.222 134.031 203.413 135.084 203.796 135.904C204.192 136.711 204.76 137.306 205.498 137.688C206.236 138.058 207.125 138.242 208.164 138.242C209.203 138.242 210.085 138.058 210.81 137.688C211.548 137.306 212.102 136.711 212.471 135.904C212.854 135.084 213.045 134.031 213.045 132.746V113.141ZM230.6 125.076V151.531H224.201V120.811H230.169L230.6 125.076ZM244.442 131.659V132.09C244.442 133.703 244.258 135.2 243.889 136.581C243.52 137.948 242.966 139.145 242.228 140.17C241.503 141.195 240.607 141.995 239.541 142.569C238.475 143.13 237.237 143.41 235.829 143.41C234.489 143.41 233.327 143.13 232.343 142.569C231.372 141.995 230.552 141.202 229.882 140.19C229.226 139.165 228.692 137.996 228.282 136.684C227.886 135.357 227.578 133.942 227.359 132.438V131.598C227.578 129.998 227.893 128.515 228.303 127.147C228.713 125.78 229.246 124.598 229.902 123.6C230.559 122.588 231.372 121.802 232.343 121.241C233.313 120.681 234.469 120.4 235.809 120.4C237.203 120.4 238.44 120.667 239.521 121.2C240.601 121.733 241.503 122.499 242.228 123.497C242.966 124.481 243.52 125.664 243.889 127.045C244.258 128.426 244.442 129.964 244.442 131.659ZM238.023 132.09V131.659C238.023 130.757 237.955 129.93 237.818 129.178C237.682 128.412 237.463 127.749 237.162 127.188C236.861 126.614 236.465 126.17 235.973 125.855C235.48 125.541 234.879 125.384 234.168 125.384C233.402 125.384 232.753 125.507 232.22 125.753C231.687 125.999 231.256 126.361 230.928 126.84C230.6 127.305 230.36 127.879 230.21 128.562C230.073 129.246 229.998 130.025 229.984 130.9V133.156C229.998 134.182 230.142 135.098 230.415 135.904C230.702 136.697 231.146 137.319 231.748 137.771C232.363 138.208 233.184 138.427 234.209 138.427C234.934 138.427 235.535 138.27 236.014 137.955C236.506 137.627 236.896 137.169 237.183 136.581C237.483 135.993 237.695 135.316 237.818 134.551C237.955 133.785 238.023 132.965 238.023 132.09ZM254.594 111.5V143H248.175V111.5H254.594ZM258.285 132.131V131.7C258.285 130.073 258.518 128.576 258.982 127.209C259.447 125.828 260.131 124.632 261.033 123.62C261.936 122.608 263.043 121.822 264.355 121.262C265.668 120.688 267.172 120.4 268.867 120.4C270.59 120.4 272.107 120.688 273.42 121.262C274.746 121.822 275.86 122.608 276.763 123.62C277.665 124.632 278.349 125.828 278.813 127.209C279.278 128.576 279.511 130.073 279.511 131.7V132.131C279.511 133.744 279.278 135.241 278.813 136.622C278.349 137.989 277.665 139.186 276.763 140.211C275.86 141.223 274.753 142.009 273.44 142.569C272.128 143.13 270.617 143.41 268.908 143.41C267.213 143.41 265.702 143.13 264.376 142.569C263.05 142.009 261.936 141.223 261.033 140.211C260.131 139.186 259.447 137.989 258.982 136.622C258.518 135.241 258.285 133.744 258.285 132.131ZM264.704 131.7V132.131C264.704 133.006 264.772 133.826 264.909 134.592C265.06 135.357 265.299 136.027 265.627 136.602C265.955 137.176 266.386 137.627 266.919 137.955C267.466 138.27 268.129 138.427 268.908 138.427C269.688 138.427 270.344 138.27 270.877 137.955C271.41 137.627 271.841 137.176 272.169 136.602C272.497 136.027 272.729 135.357 272.866 134.592C273.017 133.826 273.092 133.006 273.092 132.131V131.7C273.092 130.839 273.017 130.032 272.866 129.28C272.729 128.515 272.497 127.838 272.169 127.25C271.841 126.662 271.403 126.204 270.856 125.876C270.323 125.548 269.66 125.384 268.867 125.384C268.102 125.384 267.452 125.548 266.919 125.876C266.386 126.204 265.955 126.662 265.627 127.25C265.299 127.838 265.06 128.515 264.909 129.28C264.772 130.032 264.704 130.839 264.704 131.7ZM294.625 137.709V128.193C294.625 127.523 294.522 126.949 294.317 126.471C294.112 125.992 293.791 125.616 293.354 125.343C292.916 125.069 292.349 124.933 291.651 124.933C291.063 124.933 290.551 125.035 290.113 125.24C289.689 125.445 289.361 125.739 289.129 126.122C288.91 126.505 288.801 126.977 288.801 127.537H282.402C282.402 126.539 282.628 125.609 283.079 124.748C283.53 123.887 284.173 123.128 285.007 122.472C285.854 121.815 286.866 121.31 288.042 120.954C289.218 120.585 290.537 120.4 292 120.4C293.736 120.4 295.281 120.694 296.635 121.282C298.002 121.856 299.082 122.725 299.875 123.887C300.668 125.035 301.064 126.484 301.064 128.234V137.524C301.064 138.864 301.14 139.917 301.29 140.683C301.454 141.435 301.687 142.091 301.987 142.651V143H295.527C295.227 142.357 295.001 141.564 294.851 140.621C294.7 139.664 294.625 138.693 294.625 137.709ZM295.425 129.465L295.466 132.992H292.287C291.576 132.992 290.961 133.081 290.441 133.259C289.936 133.437 289.525 133.683 289.211 133.997C288.896 134.298 288.664 134.653 288.514 135.063C288.377 135.46 288.309 135.897 288.309 136.376C288.309 136.827 288.418 137.237 288.637 137.606C288.855 137.962 289.156 138.242 289.539 138.447C289.922 138.652 290.366 138.755 290.872 138.755C291.706 138.755 292.417 138.591 293.005 138.263C293.606 137.935 294.071 137.538 294.399 137.073C294.728 136.595 294.892 136.15 294.892 135.74L296.43 138.406C296.184 138.953 295.883 139.521 295.527 140.108C295.172 140.683 294.721 141.223 294.174 141.729C293.627 142.221 292.964 142.624 292.185 142.938C291.419 143.253 290.496 143.41 289.416 143.41C288.021 143.41 286.757 143.13 285.622 142.569C284.487 141.995 283.578 141.209 282.895 140.211C282.225 139.213 281.89 138.064 281.89 136.766C281.89 135.604 282.102 134.571 282.525 133.669C282.949 132.767 283.585 132.001 284.433 131.372C285.294 130.743 286.374 130.271 287.673 129.957C288.972 129.629 290.489 129.465 292.226 129.465H295.425ZM318.188 138.037V111.5H324.628V143H318.845L318.188 138.037ZM304.366 132.172V131.741C304.366 130.06 304.551 128.528 304.92 127.147C305.303 125.753 305.856 124.557 306.581 123.559C307.319 122.547 308.229 121.768 309.309 121.221C310.389 120.674 311.626 120.4 313.021 120.4C314.306 120.4 315.427 120.688 316.384 121.262C317.341 121.822 318.154 122.615 318.824 123.641C319.508 124.652 320.062 125.849 320.485 127.229C320.909 128.597 321.23 130.08 321.449 131.68V132.418C321.244 133.949 320.923 135.378 320.485 136.704C320.062 138.03 319.508 139.199 318.824 140.211C318.154 141.209 317.334 141.995 316.363 142.569C315.406 143.13 314.278 143.41 312.979 143.41C311.585 143.41 310.348 143.13 309.268 142.569C308.201 142.009 307.306 141.223 306.581 140.211C305.856 139.199 305.303 138.01 304.92 136.643C304.551 135.275 304.366 133.785 304.366 132.172ZM310.765 131.741V132.172C310.765 133.047 310.826 133.86 310.949 134.612C311.086 135.364 311.305 136.027 311.605 136.602C311.906 137.176 312.303 137.627 312.795 137.955C313.287 138.27 313.889 138.427 314.6 138.427C315.557 138.427 316.343 138.208 316.958 137.771C317.573 137.319 318.038 136.697 318.353 135.904C318.667 135.111 318.831 134.188 318.845 133.136V130.982C318.845 130.107 318.756 129.321 318.578 128.624C318.4 127.927 318.134 127.339 317.778 126.86C317.437 126.382 317.006 126.02 316.486 125.773C315.967 125.514 315.352 125.384 314.641 125.384C313.943 125.384 313.349 125.548 312.856 125.876C312.364 126.19 311.961 126.635 311.646 127.209C311.346 127.783 311.12 128.46 310.97 129.239C310.833 130.005 310.765 130.839 310.765 131.741Z" fill="white"/>
<defs>
<filter id="filter0_f_6_3" x="0" y="0" width="522" height="257" filterUnits="userSpaceOnUse" color-interpolation-filters="sRGB">
<feFlood flood-opacity="0" result="BackgroundImageFix"/>
<feBlend mode="normal" in="SourceGraphic" in2="BackgroundImageFix" result="shape"/>
<feGaussianBlur stdDeviation="45" result="effect1_foregroundBlur_6_3"/>
</filter>
</defs>
</svg>
